<?xml version="1.0" encoding="UTF-8"?>
<svg id="Layer_2" data-name="Layer 2" xmlns="http://www.w3.org/2000/svg" viewBox="0 0 435.71 109.57">
  <defs>
    <style>
      .cls-1 {
        fill: #231f20;
      }
    </style>
  </defs>
  <g id="Layer_7" data-name="Layer 7">
    <path class="cls-1" d="M96.77,71.34c-.82,0-1.17,1.04-.51,1.53,11.18,8.34,31.37,21.68,53.91,28.42,3.56,1.06,7.34,1.02,10.87-.05.8-.24.82-1.37.03-1.63-14.54-4.65-30.47-23.54-34.05-27.96-.16-.2-.4-.31-.66-.31h-29.59Z"/>
    <path class="cls-1" d="M149.53,71.34h-17c-.73,0-1.13.85-.65,1.4,6.91,7.96,23.63,25.55,35.91,24.89.16,0,.31-.06.44-.15.84-.58,1.75-1.23,2.72-1.96.51-.38.45-1.17-.12-1.45-9.88-4.85-18.18-18.19-20.57-22.32-.15-.26-.43-.42-.73-.42Z"/>
    <path class="cls-1" d="M144.78,109.55c56.04-1.39,134.07-60.19,171.71-91.46.61-.51.25-1.51-.54-1.51h-12.71c-.76,0-1.14-.93-.59-1.46l14.02-13.67C317.2.93,316.83,0,316.06,0h-23.42c-.22,0-.43.08-.58.23l-15.83,14.93c-.56.53-.19,1.47.58,1.47h20.27c.79,0,1.15.99.55,1.5l-13.54,11.45c-.15.13-.35.2-.55.2h-19.63c-.75,0-1.13-.9-.61-1.44l9.97-10.27c.52-.54.14-1.44-.61-1.44l-25.64-.03c-.27,0-.52.13-.68.34-44.92,58.76-68.64,78.32-79.13,84.81-5.39,3.33-11.92,4.22-17.89,2.43-26.78-8.01-50.25-25.12-59.73-32.65-.15-.12-.33-.18-.52-.18H1.12c-1.24,0-1.56,1.72-.4,2.16,29.41,11.15,111.12,36.88,144.06,36.06Z"/>
    <path class="cls-1" d="M366.05,16.59h-17.38c-1.22,0-2.42.35-3.44,1.02l-18.69,12.12c-.05.04-.12.05-.18.05h-19.26c-.08,0-.15.03-.21.07-10.1,8.09-21.94,17.16-34.79,26.23-34.83,24.56-65.53,41.19-91.76,49.73-.4.13-.25.73.16.65,63.39-12.11,144.58-61.86,185.75-89.27.28-.18.14-.61-.19-.61Z"/>
    <path class="cls-1" d="M341.49.21c-1.9,1.75-8.56,7.9-16.73,14.88-.6.51-.24,1.5.55,1.5h19.18c1.5,0,2.96-.5,4.15-1.42l17.62-13.65c.64-.5.29-1.52-.52-1.52h-23.7c-.2,0-.4.07-.55.21Z"/>
    <path class="cls-1" d="M392.24,15.38c7.68-5.32,15.37-10.6,19.82-13.81.67-.48.32-1.54-.5-1.54h-15c-.18,0-.36.06-.51.17-2.08,1.54-10.21,7.71-20.63,14.84-.69.47-.36,1.55.48,1.55h12.45c1.39,0,2.75-.42,3.89-1.21Z"/>
    <path class="cls-1" d="M334.34,51.25c12.19-7.06,23.53-14.1,33.6-20.64.71-.46.38-1.56-.47-1.56h-13.52c-.16,0-.32.05-.46.13-13.53,8.71-29.62,18.62-47.01,28.45-28.53,16.12-64.37,34.07-98.52,44.83-.41.13-.25.74.17.66,44.1-8.35,91.6-31.84,126.21-51.87Z"/>
    <path class="cls-1" d="M373.63,27.53c5.71-3.21,12.16-7.46,15.33-9.63,1.14-.78,2.48-1.19,3.85-1.19h10.7c.85,0,1.18,1.11.46,1.57-5.26,3.34-15.03,8.55-19.61,10.76-.12.06-.24.08-.36.08h-9.94c-.88,0-1.18-1.16-.42-1.59Z"/>
    <path class="cls-1" d="M410.07,15.08c6.94-3.11,10.12-4.72,13.71-6.71.12-.07.25-.1.39-.1h10.98c.61,0,.77.83.22,1.08-7.59,3.37-10,4.55-16.1,7.2-.18.08-.38.09-.58.09l-8.29.07c-.91,0-1.18-1.25-.34-1.62Z"/>
  </g>
</svg>