<?xml version="1.0" encoding="UTF-8"?>
<svg id="Layer_2" data-name="Layer 2" xmlns="http://www.w3.org/2000/svg" viewBox="0 0 432.88 114.04">
  <defs>
    <style>
      .cls-1, .cls-2 {
        fill: #fff;
      }

      .cls-1, .cls-2, .cls-3 {
        stroke: #fff;
        stroke-miterlimit: 10;
      }

      .cls-2, .cls-3 {
        stroke-width: 3px;
      }

      .cls-3 {
        fill: none;
      }
    </style>
  </defs>
  <g id="Layer_11" data-name="Layer 11">
    <path class="cls-3" d="M145.61,104.2c-25.34-7.58-48.18-23.52-59.86-32.89H1.81c-.33,0-.43.45-.13.58,11.96,5.09,99.32,41.61,139,40.63C218.16,110.59,335.41,1.57,335.41,1.57h-82.42c-49.3,66.59-77.29,92.07-90.7,100.36-4.99,3.08-11.06,3.95-16.68,2.27Z"/>
    <path class="cls-3" d="M147.23,112.11c84.91,2.45,229.29-101.12,241.43-109.95.26-.19.12-.6-.2-.6h-56.15"/>
    <path class="cls-3" d="M387.28,18.12c-42.34,29.49-135.56,88.31-209.11,91.02"/>
    <path class="cls-3" d="M164.39,100.56c-16.84,1.7-41.03-29.26-41.03-29.26h-37.61"/>
    <path class="cls-3" d="M123.37,71.31h23.4s11.59,21.46,24.33,24.24"/>
    <line class="cls-3" x1="387.78" y1="18.06" x2="240.58" y2="18.06"/>
    <line class="cls-3" x1="286.55" y1="1.57" x2="257.77" y2="31.21"/>
    <line class="cls-3" x1="312.4" y1="1.57" x2="295.28" y2="18.09"/>
    <line class="cls-3" x1="365.6" y1="1.26" x2="342.68" y2="18.06"/>
    <polygon class="cls-1" points="252.99 1.57 286.55 1.57 270.54 18.09 240.58 18.06 252.99 1.57"/>
    <path class="cls-2" d="M270.54,18.09h24.74l-15.53,13.13s-.04.02-.06.02h-21.69c-.09,0-.13-.1-.07-.16l12.61-12.99Z"/>
    <polygon class="cls-1" points="311.76 2.18 335.41 1.57 318.81 18.06 297.01 18.06 311.76 2.18"/>
    <path class="cls-1" d="M363.85,1.5h19.77c2.18,0,3.07,2.81,1.29,4.06l-17.04,11.99h-24.49l20.48-16.05Z"/>
    <path class="cls-2" d="M318.81,18.06h23.87l-20.31,13.16s-.06.03-.09.03h-20.3l16.83-13.19Z"/>
    <polygon class="cls-2" points="367.78 18.06 385.71 18.06 367.54 30.52 348.5 30.52 367.78 18.06"/>
    <path class="cls-2" d="M412.35,1.55l18.71-.05c.33,0,.44.43.16.6l-24.53,14.12c-2.1,1.21-4.48,1.85-6.91,1.85h-12.41l24.97-16.5Z"/>
  </g>
</svg>